# xmcd
#
# Track frame offsets:
#	150
#	16467
#	29673
#	43139
#	62426
#	73676
#	83939
#	103794
#	117494
#	130185
#	147170
#	159442
#	174006
#	182788
#
# Disc length: 2694 seconds
# Revision: 0
# Processed by: cddbd v1.5.2PL0 Copyright (c) Steve Scherf et al.
# Submitted via: dBpowerAMP V12.0
#
DISCID=c00a840e
DTITLE=The Stonemans - The Stoneman Tradition
DYEAR=2012
DGENRE=Country
TTITLE0=Have I Told You Lately That I Love You
TTITLE1=Going Home
TTITLE2=Donna-mite
TTITLE3=On the Banks of the Wabash, Far Away
TTITLE4=The Raging Sea, How It Roars
TTITLE5=Rubber Dolly
TTITLE6=Don't Let Your Deal Go Down
TTITLE7=Catfish John
TTITLE8=The Boys from Nanjemoy
TTITLE9=Bury Me Beneath the Weeping Willow Tree
TTITLE10=Good, Good Girl
TTITLE11=Tribe's Tune
TTITLE12=Ring the Bell, Watchman
TTITLE13=Where the Soul of Man Never Dies
EXTD=
EXTT0=
EXTT1=
EXTT2=
EXTT3=
EXTT4=
EXTT5=
EXTT6=
EXTT7=
EXTT8=
EXTT9=
EXTT10=
EXTT11=
EXTT12=
EXTT13=
PLAYORDER=
